<svg id="圖層_1" data-name="圖層 1" xmlns="http://www.w3.org/2000/svg" viewBox="0 0 106.8 52.37"><g id="圖層_2" data-name="圖層 2"><g id="圖層_1-2" data-name="圖層 1-2"><g id="Group_5" data-name="Group 5"><g id="Group_4" data-name="Group 4"><g id="Path_1098" data-name="Path 1098"><path d="M10,39.51a2.92,2.92,0,0,1,1.2,2.93c-.16,1.91-.28,3.93-.36,6l-.21,4.37q-.06,1.5.6.6a6.25,6.25,0,0,0,2.58-.6,4.72,4.72,0,0,1,.41,2q.66.12.36,1.38a2.16,2.16,0,0,1-.9,1.31c.12.52-.14,1-.77,1.5s-.48.84,0,1.32a9.71,9.71,0,0,1-.28,2.33,10.83,10.83,0,0,1-1.32,1.91,2.07,2.07,0,0,0-.42,2.1,24.3,24.3,0,0,0,4.43-4.9,1.9,1.9,0,0,0,.48-2.27,6.65,6.65,0,0,1,1.32-5.44,1.83,1.83,0,0,1,2.51-.58h0a.94.94,0,0,1,.24.18,4.73,4.73,0,0,1,1.83,2.72c.56-.12.88-.65,1-1.61a16.46,16.46,0,0,1-1.62-1.92c0-.47.18-.65.66-.53s.64,0,.48-.36q0-.66.57-.33a.69.69,0,0,0,1-.1l0,0h0a19.2,19.2,0,0,1,4.79,0q-.18.3.24.69t.12.27a2.3,2.3,0,0,0-.36,2,3.74,3.74,0,0,1-.72,2,30.5,30.5,0,0,1-5-2A12.77,12.77,0,0,0,22,57.56a3.71,3.71,0,0,0,2.48.21,4.73,4.73,0,0,1,2.42,0,1.91,1.91,0,0,1,1.5.27.72.72,0,0,1,.45.91h0a1.65,1.65,0,0,1-.15.25l.18,2.45a4,4,0,0,1-3.71.36,2,2,0,0,0-2.33,1.13,2.83,2.83,0,0,0-.48,1.38c-.08.6.14.93.66,1a.74.74,0,0,0,.93-.24q.39-.48.21-.24a3.66,3.66,0,0,0,2.36.66c.94,0,1.21.43.81,1.43a1.83,1.83,0,0,1-.42,2.53,2.1,2.1,0,0,1-.42.22,2.85,2.85,0,0,0,3.71,1.56l-.16-7.4c-.08-2.51-.18-4.91-.3-7.18V52.64A18.72,18.72,0,0,0,29,46.41c0-.8-.31-1.15-.93-1.07a1.66,1.66,0,0,0-1.34.9,16,16,0,0,1-3.53-.3,1.45,1.45,0,0,1-1.23.15.88.88,0,0,0-1.11.45q-.54-.72.54-1.68a20.57,20.57,0,0,1,5-2.93,6.82,6.82,0,0,1,6.25-.06,5,5,0,0,1,1.46,5.18,5.39,5.39,0,0,0-.53,3.11,80.9,80.9,0,0,0,.12,11.44,25.64,25.64,0,0,1,0,3.28c.23,1.8.45,3.69.65,5.69a7.51,7.51,0,0,0,.42,2.48,1.88,1.88,0,0,1-.6,2.13,1.22,1.22,0,0,1-.52,1.33,2.56,2.56,0,0,0-1.07,1.14c.24.32,0,.5-.6.54q-.6,1.2-1.68.3l-1.75-1.74a5.71,5.71,0,0,0-4.67-1.31q-1,.12-.54-.72a2.43,2.43,0,0,0,.9-2,3.06,3.06,0,0,0,.06-2.15,11.63,11.63,0,0,1-3-.3q-.24-.48-.33.15t-.45,0q-.36.42-.42-.66A7.31,7.31,0,0,1,19,66.41a54.08,54.08,0,0,1,.36-8.25V55.72q.06-1.2-1.32-1.44a5,5,0,0,0-1.31,2.34A1,1,0,0,0,16.92,58a1.45,1.45,0,0,1,.54,1.34,6.8,6.8,0,0,1-.6,3.53,30.2,30.2,0,0,1-2.23,4.79A9.58,9.58,0,0,1,11,72.05a6.52,6.52,0,0,0-.72,2.33c-.16,1-.3,2-.42,2.87q-.48.84-.9.24a6.34,6.34,0,0,1-.65-1.2,4,4,0,0,0-.45-1.41q-.39-.75-.93-.09a2.71,2.71,0,0,1-2.81-1.25c-.28-.28-.61-.25-1,.09s-.6.37-.66.09c-.08-1.24-.18-2.38-.3-3.41A18.27,18.27,0,0,1,3.63,68.4c1-1,2-2.12,3-3.29a3.75,3.75,0,0,0,1.32-4,5,5,0,0,0-3.59-.53A1.26,1.26,0,0,0,3,61.69H3a13.38,13.38,0,0,0-.15,1.8,2.86,2.86,0,0,1-.72,3.17c-1.67,2-3.21,4-4.6,6a54.32,54.32,0,0,0-6,6.94,8.24,8.24,0,0,1-.42-2.45q-.66-.36-.18-.9a.89.89,0,0,0,.18-1.08,2.21,2.21,0,0,1,1-1.56,11.62,11.62,0,0,0,1.14-7,10.12,10.12,0,0,0-4.49-3.29,8.42,8.42,0,0,1-4.9-3.83,3.11,3.11,0,0,1,.6-3.41l6.52-2.87a30.06,30.06,0,0,0,5.8-2.93,9.68,9.68,0,0,0,2.52-2.7,62.51,62.51,0,0,0-6.76-6.46q-.6-.42.06-.3l1.07.3a16.11,16.11,0,0,1,7.48,2c.76.6,1.57,1.19,2.42,1.76a3.4,3.4,0,0,1,1.53,2.36,5.39,5.39,0,0,1-1,1.08,2.39,2.39,0,0,1-.72,2.45A4.7,4.7,0,0,1,.22,48.56a19.29,19.29,0,0,1-5.44,4c-2.74.8-5.41,1.71-8,2.75a9.38,9.38,0,0,0-2.49,1.74,2.05,2.05,0,0,0,1.77,1.85,17.83,17.83,0,0,1,2.78.66,10.91,10.91,0,0,1,4.79,2.62A10.8,10.8,0,0,1-5.3,71.05l-.77,3.11a21.67,21.67,0,0,0,5.5-5,5.59,5.59,0,0,0,2-4.67,9.11,9.11,0,0,1,0-3.89A10.43,10.43,0,0,1,5,57.05a2.17,2.17,0,0,0,1-.44q.5-.39-.39-.51c.48-.08,1.11-.22,1.91-.42Q8,55.14,7,55.26q-.66.06.42-.42c.8,0,1.1-.42.9-1.37a4.41,4.41,0,0,1,.06-1.62,39.39,39.39,0,0,1,.18-4.61A20.56,20.56,0,0,0,8.37,42q-.36-.78-1.26.18c-.67.24-.83-.06-.47-.9a4.22,4.22,0,0,1,2.39-2ZM5.68,71a1.67,1.67,0,0,0,1.67-.72c.64-.6.74-1,.3-1.13Zm17-8.13a10.27,10.27,0,0,0,1.2-1.08,1.39,1.39,0,0,0-1.38-.9,4.39,4.39,0,0,0,.18,2Z" transform="translate(16.46 -33.27)" style="fill:#191210"/></g><g id="Path_1099" data-name="Path 1099"><path d="M81.62,33.43a6.47,6.47,0,0,0,1.81,1.26c1.92,1,2.37,2.37,1.38,4.24A11.88,11.88,0,0,1,84,40.52q-.51.87.57,1.35a1,1,0,0,1,1.13.33,1.17,1.17,0,0,0,1.26.32c.88.48,1.79.94,2.75,1.38s.78.86-.3,1.14a20.39,20.39,0,0,1-5.56.65,1.87,1.87,0,0,0-2,1.38l-1.73,4.06q-.72.6-.09.84a1.67,1.67,0,0,1,.93.84c1.39.8,1.57,1.81.54,3a1.83,1.83,0,0,1-1.89,1.78h-.28a14.89,14.89,0,0,0-4,3.59A13.31,13.31,0,0,1,78.43,64a4.72,4.72,0,0,0,.65,2.46A37.82,37.82,0,0,1,84,65.34a16.68,16.68,0,0,1,2,0,4.73,4.73,0,0,1,3,1.91c.72.2,1,.87.84,2a2.15,2.15,0,0,1-.94,2.89h-.08a14,14,0,0,0-1.92,1.25,11.56,11.56,0,0,1-1.79,1A8.3,8.3,0,0,1,86,78.52q-.42,1-1.29.84a5.63,5.63,0,0,0-1.64-.12l-4.43-1c-1-.28-2.09-.58-3.17-.9A1.87,1.87,0,0,1,76.7,75h.06a8.55,8.55,0,0,0,3.67-3.57,4.66,4.66,0,0,0-3.52.06c-1.6-.48-3.19-.92-4.79-1.32a27.14,27.14,0,0,0,4.66-2.87l-2.27-1.24c-.8-.4-1.56-.76-2.27-1.08a51.15,51.15,0,0,0-4.73,6.94q-.24.6.33.24t.87-.24q.54-.76.66,0a1.84,1.84,0,0,0,.78,1.92,4,4,0,0,1,2.15,3.41,24.32,24.32,0,0,1-.24,4.18c-1.24.6-2.31.26-3.23-1A3.59,3.59,0,0,1,67,76.8V73a89.23,89.23,0,0,1-6.4,7.48A18.42,18.42,0,0,1,57.94,83a15.78,15.78,0,0,1-4.06,2.39A2.32,2.32,0,0,1,51,84.86a2.39,2.39,0,0,1,1.62-1.25,27.38,27.38,0,0,0,4-4.73,3.36,3.36,0,0,1,1.07-.72l2-2.15a16.58,16.58,0,0,0,2.21-3Q66,68.41,69.74,63.8q.54-.54,0-.93a5.1,5.1,0,0,1-.93-.81q-.66-1-1.35-.36A6.21,6.21,0,0,1,66,62.78c-1.16.67-1.82.29-2-1.14a6.48,6.48,0,0,1-.29-3.35,22.77,22.77,0,0,1,3.46-3.41A9.69,9.69,0,0,0,69.57,52c1.11-.83,1.11-1.65,0-2.45q-.42.42-.81-.09a.59.59,0,0,0-.8-.2l-.13.11a3.57,3.57,0,0,1-3.4,1.09A1.87,1.87,0,0,1,62.17,49h0a2.41,2.41,0,0,1,0-.38,4.94,4.94,0,0,0-.66-1.55q.66-.12.66-.54.48-.9.45,0A1.69,1.69,0,0,0,63.12,48a7.36,7.36,0,0,0,3.71-.9c.63,0,.84-.19.62-.69A4.55,4.55,0,0,1,67.06,45a5.6,5.6,0,0,1-.35-3,2.51,2.51,0,0,0-1.08-2.57,12.1,12.1,0,0,1-1.92-1.08,3.59,3.59,0,0,1,2.52-1.08,41.86,41.86,0,0,1,5,.9,2.46,2.46,0,0,1,1.56,1.2,13.18,13.18,0,0,0,.48,3.53,2.84,2.84,0,0,1,.3,1.14c0,.48.23.68.6.6l3.76-1c.64-.24.94-.62.9-1.13.44-1.44,1-2.9,1.56-4.37a3,3,0,0,0,.06-2.93,2,2,0,0,0-1-.45q-.75-.15-.33-.51a2.27,2.27,0,0,0,1.8-1ZM67.2,73q.12-.36-.24-.18Q67.08,73.34,67.2,73Zm.18-.33q.24-.39-.3-.27c0,.4.16.47.35.22Zm5.74-17.8A51.21,51.21,0,0,0,69.23,60c1.16.12,2.3.2,3.41.24l4-5.32a8.89,8.89,0,0,0-3.41-.06Zm1.5-7.6a3.49,3.49,0,0,0-2.19,1.33c-.6.47-1.12.91-1.56,1.31A4.5,4.5,0,0,0,72.67,51a8.5,8.5,0,0,0,2.69-1.26,1.64,1.64,0,0,0,1.32-1.37q.64-1.38.18-1.74Z" transform="translate(16.46 -33.27)" style="fill:#191210"/></g></g></g></g></g></svg>