<svg id="圖層_1" data-name="圖層 1" xmlns="http://www.w3.org/2000/svg" viewBox="0 0 51.32 124.35"><g id="圖層_2" data-name="圖層 2"><g id="圖層_1-2" data-name="圖層 1-2"><g id="Group_5" data-name="Group 5"><g id="Group_4" data-name="Group 4"><g id="Path_1098" data-name="Path 1098"><path d="M26.37,33.46a2.92,2.92,0,0,1,1.2,2.93c-.16,1.91-.28,3.93-.36,6L27,46.76q-.06,1.5.6.6a6.1,6.1,0,0,0,2.58-.6,4.75,4.75,0,0,1,.41,2q.66.12.36,1.38a2.1,2.1,0,0,1-.9,1.31c.12.52-.14,1-.77,1.5s-.48.84,0,1.32A9.12,9.12,0,0,1,29,56.6a9.7,9.7,0,0,1-1.32,1.91,2.12,2.12,0,0,0-.42,2.1,23.72,23.72,0,0,0,4.43-4.9,1.89,1.89,0,0,0,.48-2.27A6.65,6.65,0,0,1,33.49,48,1.85,1.85,0,0,1,36,47.42h0a1.08,1.08,0,0,1,.24.18,4.67,4.67,0,0,1,1.83,2.72c.56-.12.88-.65,1-1.61a16.46,16.46,0,0,1-1.62-1.92c0-.47.18-.65.66-.53s.64,0,.48-.36q0-.66.57-.33a.69.69,0,0,0,1-.09l0,0h0a19.2,19.2,0,0,1,4.79,0q-.18.3.24.69t.12.27a2.34,2.34,0,0,0-.36,2,3.71,3.71,0,0,1-.72,2,31.23,31.23,0,0,1-5-2,13.37,13.37,0,0,0-.84,3.11,3.66,3.66,0,0,0,2.48.21,4.73,4.73,0,0,1,2.42,0,1.93,1.93,0,0,1,1.5.27.72.72,0,0,1,.45.91h0a1.28,1.28,0,0,1-.15.25l.18,2.45a4,4,0,0,1-3.71.36,2,2,0,0,0-2.33,1.13,3,3,0,0,0-.48,1.38c-.08.6.14.93.66,1a.71.71,0,0,0,.93-.24q.39-.48.21-.24a3.62,3.62,0,0,0,2.36.66c.94,0,1.21.43.81,1.43a1.82,1.82,0,0,1-.42,2.53,1.68,1.68,0,0,1-.42.22,2.85,2.85,0,0,0,3.71,1.56L46.43,58c-.08-2.51-.18-4.91-.3-7.18V46.59a18.49,18.49,0,0,0-.78-6.23c0-.8-.31-1.15-.93-1.07a1.67,1.67,0,0,0-1.34.9,16.09,16.09,0,0,1-3.53-.3,1.41,1.41,0,0,1-1.23.15.89.89,0,0,0-1.11.45q-.54-.72.54-1.68a21.09,21.09,0,0,1,5-2.93A6.83,6.83,0,0,1,49,35.82,5,5,0,0,1,50.46,41a5.47,5.47,0,0,0-.53,3.11,80.9,80.9,0,0,0,.12,11.44,25.64,25.64,0,0,1,0,3.28c.23,1.8.45,3.69.65,5.69A7.78,7.78,0,0,0,51.12,67a1.86,1.86,0,0,1-.6,2.13A1.19,1.19,0,0,1,50,70.46a2.62,2.62,0,0,0-1.07,1.14c.24.32,0,.5-.6.54q-.6,1.2-1.68.3L44.9,70.7a5.7,5.7,0,0,0-4.67-1.31q-1,.12-.54-.72a2.39,2.39,0,0,0,.9-2,3.06,3.06,0,0,0,.06-2.15,11.63,11.63,0,0,1-3-.3q-.24-.48-.33.15t-.45,0q-.36.42-.42-.66a7.43,7.43,0,0,1-1.13-3.35,54.14,54.14,0,0,1,.36-8.25V49.67q.06-1.2-1.32-1.44a5.1,5.1,0,0,0-1.31,2.34,1,1,0,0,0,.24,1.35,1.44,1.44,0,0,1,.54,1.34,6.7,6.7,0,0,1-.6,3.53A30.2,30.2,0,0,1,31,61.58,9.47,9.47,0,0,1,27.37,66a6.86,6.86,0,0,0-.72,2.33c-.16,1-.3,2-.42,2.87q-.48.84-.9.24a6.34,6.34,0,0,1-.65-1.2,4,4,0,0,0-.45-1.41q-.39-.75-.93-.09a2.7,2.7,0,0,1-2.81-1.25c-.28-.28-.61-.25-1,.09s-.6.37-.66.09c-.08-1.24-.18-2.38-.3-3.41A19.38,19.38,0,0,1,20,62.35c1-1,2-2.12,3-3.29a3.73,3.73,0,0,0,1.32-4,5,5,0,0,0-3.59-.53,1.28,1.28,0,0,0-1.41,1.11h0a13.66,13.66,0,0,0-.15,1.8,2.84,2.84,0,0,1-.72,3.17c-1.67,2-3.21,4-4.6,6a54.32,54.32,0,0,0-6,6.94,8.51,8.51,0,0,1-.42-2.45q-.66-.36-.18-.9a.87.87,0,0,0,.18-1.08,2.24,2.24,0,0,1,1-1.56,11.45,11.45,0,0,0,1.14-7,10.22,10.22,0,0,0-4.49-3.29,8.38,8.38,0,0,1-4.9-3.83A3.13,3.13,0,0,1,.78,50L7.3,47.16a29.23,29.23,0,0,0,5.8-2.93,9.28,9.28,0,0,0,2.52-2.7,62.51,62.51,0,0,0-6.76-6.46q-.6-.42.06-.3l1.07.3a16.17,16.17,0,0,1,7.48,2c.76.6,1.57,1.19,2.42,1.76a3.38,3.38,0,0,1,1.53,2.36,5.14,5.14,0,0,1-1,1.08,2.36,2.36,0,0,1-.72,2.45,4.71,4.71,0,0,1-3.11-2.21,19,19,0,0,1-5.44,4q-4.11,1.2-8,2.75A9.38,9.38,0,0,0,.66,51a2.06,2.06,0,0,0,1.77,1.85,19,19,0,0,1,2.78.66A11.05,11.05,0,0,1,10,56.13,10.73,10.73,0,0,1,11.07,65l-.77,3.11a21.3,21.3,0,0,0,5.5-5,5.54,5.54,0,0,0,2-4.67,9.11,9.11,0,0,1,0-3.89A10.7,10.7,0,0,1,21.33,51a2.13,2.13,0,0,0,1.05-.44q.5-.39-.39-.51c.48-.08,1.11-.22,1.91-.42q.42-.54-.54-.42-.66.06.42-.42c.8,0,1.1-.42.9-1.37a4.41,4.41,0,0,1,.06-1.62,39.39,39.39,0,0,1,.18-4.61,20.59,20.59,0,0,0-.18-5.2q-.36-.77-1.26.18c-.67.24-.83-.06-.47-.9a4.29,4.29,0,0,1,2.39-2ZM22.05,64.92a1.66,1.66,0,0,0,1.67-.72c.64-.6.74-1,.3-1.13Zm17-8.13a8.74,8.74,0,0,0,1.2-1.08,1.39,1.39,0,0,0-1.38-.9,4.51,4.51,0,0,0,.18,2Z" transform="translate(0.08 -33.27)" style="fill:#191210"/></g><g id="Path_1099" data-name="Path 1099"><path d="M33.19,105.41A6.47,6.47,0,0,0,35,106.67c1.92,1,2.37,2.37,1.38,4.24a14.83,14.83,0,0,1-.81,1.59q-.51.87.57,1.35a1,1,0,0,1,1.13.33,1.17,1.17,0,0,0,1.26.32c.88.48,1.79.94,2.75,1.38s.78.86-.3,1.14a20.44,20.44,0,0,1-5.56.65,1.86,1.86,0,0,0-2,1.38l-1.73,4.06q-.72.6-.09.84a1.67,1.67,0,0,1,.93.84c1.39.8,1.57,1.81.54,3a1.84,1.84,0,0,1-1.9,1.78H30.9a14.75,14.75,0,0,0-4,3.59A13.52,13.52,0,0,1,30,136a4.63,4.63,0,0,0,.65,2.46,37.44,37.44,0,0,1,4.9-1.14,16.68,16.68,0,0,1,2,0,4.75,4.75,0,0,1,3.05,1.91c.72.2,1,.87.84,2a2.15,2.15,0,0,1-.94,2.89h-.08a12.91,12.91,0,0,0-1.92,1.25,12.57,12.57,0,0,1-1.79,1,8.3,8.3,0,0,1,.84,4.13q-.42,1-1.29.84a5.65,5.65,0,0,0-1.64-.12l-4.43-1c-1-.28-2.09-.58-3.17-.9A1.87,1.87,0,0,1,28.27,147h.06A8.55,8.55,0,0,0,32,143.43a4.66,4.66,0,0,0-3.52.06q-2.4-.72-4.79-1.32a27.14,27.14,0,0,0,4.66-2.87l-2.27-1.24c-.8-.4-1.56-.76-2.27-1.08a50.25,50.25,0,0,0-4.73,6.94q-.24.6.33.24t.87-.24q.54-.76.66,0a1.84,1.84,0,0,0,.78,1.92,4,4,0,0,1,2.15,3.41,24.32,24.32,0,0,1-.24,4.18c-1.24.6-2.31.26-3.23-1a3.58,3.58,0,0,1-1.8-3.65V145a91.14,91.14,0,0,1-6.4,7.48,19.51,19.51,0,0,1-2.69,2.45,16.12,16.12,0,0,1-4.06,2.39,2.32,2.32,0,0,1-2.88-.48,2.39,2.39,0,0,1,1.62-1.25,27.38,27.38,0,0,0,4-4.73,3.26,3.26,0,0,1,1.07-.72l2-2.15a17.58,17.58,0,0,0,2.21-3q4.14-4.61,7.84-9.21.54-.54,0-.93a4.51,4.51,0,0,1-.93-.81q-.66-1-1.35-.36a6.21,6.21,0,0,1-1.46,1.08c-1.16.67-1.82.29-2-1.14a6.48,6.48,0,0,1-.29-3.35,22.77,22.77,0,0,1,3.46-3.41,9.84,9.84,0,0,0,2.4-2.93c1.11-.83,1.11-1.65,0-2.45q-.42.42-.81-.09a.59.59,0,0,0-.8-.2.69.69,0,0,0-.13.11,3.58,3.58,0,0,1-3.4,1.09A1.88,1.88,0,0,1,13.73,121h0a2.41,2.41,0,0,1,0-.38,4.94,4.94,0,0,0-.66-1.55q.66-.12.66-.54.48-.9.45,0a1.69,1.69,0,0,0,.51,1.41,7.41,7.41,0,0,0,3.71-.9c.63,0,.84-.19.62-.69a4.55,4.55,0,0,1-.39-1.35,5.6,5.6,0,0,1-.35-3,2.52,2.52,0,0,0-1.08-2.57,11.67,11.67,0,0,1-1.92-1.08,3.57,3.57,0,0,1,2.52-1.08,42.6,42.6,0,0,1,5,.9,2.48,2.48,0,0,1,1.56,1.2,13.18,13.18,0,0,0,.48,3.53,2.84,2.84,0,0,1,.3,1.14c0,.48.23.68.6.6l3.76-1c.64-.24.94-.62.9-1.13.44-1.44,1-2.9,1.56-4.37a3,3,0,0,0,.06-2.93,2,2,0,0,0-1-.45q-.75-.15-.33-.51a2.3,2.3,0,0,0,1.8-1ZM18.77,145q.12-.36-.24-.18Q18.65,145.32,18.77,145Zm.18-.33q.24-.39-.3-.27c0,.4.16.47.35.22Zm5.74-17.8A48.36,48.36,0,0,0,20.8,132c1.16.12,2.3.2,3.41.24l4-5.32a8.89,8.89,0,0,0-3.41-.06Zm1.5-7.6A3.46,3.46,0,0,0,24,120.6c-.6.47-1.12.91-1.56,1.31a4.43,4.43,0,0,0,1.8,1.08,8.71,8.71,0,0,0,2.69-1.26,1.64,1.64,0,0,0,1.32-1.37q.64-1.38.18-1.74Z" transform="translate(0.08 -33.27)" style="fill:#191210"/></g></g></g></g></g></svg>