<?xml version="1.0" encoding="utf-8"?>
<!-- Generator: Adobe Illustrator 24.1.1, SVG Export Plug-In . SVG Version: 6.00 Build 0)  -->
<svg version="1.1" id="圖層_1" xmlns="http://www.w3.org/2000/svg" xmlns:xlink="http://www.w3.org/1999/xlink" x="0px" y="0px"
	 viewBox="0 0 51.3 124.3" style="enable-background:new 0 0 51.3 124.3;" xml:space="preserve">
<style type="text/css">
	.st0{fill:#FFFFFF;}
</style>
<g id="圖層_2_1_">
	<g id="圖層_1-2">
		<g id="Group_5">
			<g id="Group_4">
				<g id="Path_1098">
					<path class="st0" d="M26.4,0.2c0.9,0.7,1.4,1.8,1.2,2.9c-0.2,1.9-0.3,3.9-0.4,6L27,13.5c0,1,0.2,1.2,0.6,0.6
						c0.9,0,1.8-0.2,2.6-0.6c0.3,0.6,0.4,1.3,0.4,2c0.4,0.1,0.6,0.5,0.4,1.4c-0.1,0.5-0.4,1-0.9,1.3c0.1,0.5-0.1,1-0.8,1.5
						s-0.5,0.8,0,1.3c0,0.8-0.1,1.6-0.3,2.3c-0.4,0.7-0.8,1.3-1.3,1.9c-0.5,0.6-0.7,1.4-0.4,2.1c1.7-1.4,3.2-3.1,4.4-4.9
						c0.7-0.6,0.9-1.5,0.5-2.3c-0.4-1.9,0.1-3.9,1.3-5.4c0.5-0.8,1.7-1.1,2.5-0.6l0,0c0.1,0,0.2,0.1,0.2,0.2
						c0.9,0.7,1.6,1.6,1.8,2.7c0.6-0.1,0.9-0.7,1-1.6c-0.6-0.6-1.1-1.2-1.6-1.9c0-0.5,0.2-0.7,0.7-0.5s0.6,0,0.5-0.4
						c0-0.4,0.2-0.5,0.6-0.3c0.3,0.3,0.7,0.2,1-0.1c0,0,0,0,0,0l0,0l0,0c1.6-0.2,3.2-0.2,4.8,0c-0.1,0.2,0,0.4,0.2,0.7
						c0.3,0.3,0.3,0.4,0.1,0.3c-0.4,0.6-0.6,1.3-0.4,2c0,0.7-0.3,1.4-0.7,2c-1.7-0.5-3.4-1.2-5-2c-0.4,1-0.7,2-0.8,3.1
						c0.8,0.4,1.7,0.4,2.5,0.2c0.8-0.2,1.6-0.2,2.4,0c0.5-0.1,1.1,0,1.5,0.3c0.4,0.1,0.6,0.5,0.5,0.9l0,0c0,0.1-0.1,0.2-0.2,0.3
						l0.2,2.5c-1.1,0.7-2.5,0.9-3.7,0.4c-0.9-0.2-1.9,0.2-2.3,1.1c-0.3,0.4-0.4,0.9-0.5,1.4c-0.1,0.6,0.1,0.9,0.7,1
						c0.3,0.2,0.7,0.1,0.9-0.2c0.3-0.3,0.3-0.4,0.2-0.2c0.7,0.5,1.5,0.7,2.4,0.7c0.9,0,1.2,0.4,0.8,1.4c0.6,0.8,0.4,1.9-0.4,2.5
						c-0.1,0.1-0.3,0.2-0.4,0.2c0.6,1.5,2.3,2.2,3.7,1.6l-0.2-7.4c-0.1-2.5-0.2-4.9-0.3-7.2v-4.2c0.1-2.1-0.2-4.2-0.8-6.2
						c0-0.8-0.3-1.2-0.9-1.1c-0.6,0-1.1,0.4-1.3,0.9c-1.2,0-2.4-0.1-3.5-0.3c-0.4,0.2-0.8,0.3-1.2,0.2c-0.4-0.2-0.9,0-1.1,0.5
						c-0.4-0.5-0.2-1,0.5-1.7c1.5-1.2,3.2-2.2,5-2.9c2-1,4.3-1.1,6.2-0.1c1.5,1.3,2,3.3,1.5,5.2c-0.5,1-0.7,2-0.5,3.1
						c-0.2,3.8-0.2,7.6,0.1,11.4c0.1,1.1,0.1,2.2,0,3.3c0.2,1.8,0.5,3.7,0.7,5.7c0,0.8,0.1,1.7,0.4,2.5c0.3,0.8,0,1.6-0.6,2.1
						c0.1,0.5-0.1,1.1-0.5,1.3c-0.5,0.3-0.8,0.7-1.1,1.1c0.2,0.3,0,0.5-0.6,0.5c-0.4,0.8-1,0.9-1.7,0.3l-1.8-1.7
						c-1.3-1.1-3-1.6-4.7-1.3c-0.7,0.1-0.8-0.2-0.5-0.7c0.6-0.5,0.9-1.2,0.9-2c0.3-0.7,0.3-1.4,0.1-2.1c-1,0-2-0.1-3-0.3
						c-0.2-0.3-0.3-0.3-0.3,0.2c-0.1,0.4-0.2,0.4-0.5,0c-0.2,0.3-0.4,0.1-0.4-0.7c-0.6-1-1-2.2-1.1-3.3c-0.1-2.8,0-5.5,0.4-8.3v-2.4
						c0-0.8-0.4-1.3-1.3-1.4c-0.6,0.6-1.1,1.5-1.3,2.3c-0.3,0.4-0.2,1,0.2,1.3c0.4,0.3,0.6,0.8,0.5,1.3c0.1,1.2-0.1,2.4-0.6,3.5
						c-0.6,1.7-1.3,3.3-2.2,4.8c-0.7,1.8-2,3.4-3.6,4.4c-0.4,0.7-0.6,1.5-0.7,2.3c-0.2,1-0.3,2-0.4,2.9c-0.3,0.6-0.6,0.6-0.9,0.2
						c-0.3-0.4-0.5-0.8-0.6-1.2c-0.1-0.5-0.2-1-0.5-1.4c-0.3-0.5-0.6-0.5-0.9-0.1c-1.1,0.2-2.2-0.3-2.8-1.3c-0.3-0.3-0.6-0.3-1,0.1
						s-0.6,0.4-0.7,0.1c-0.1-1.2-0.2-2.4-0.3-3.4c0.4-0.7,0.9-1.3,1.5-1.9c1-1,2-2.1,3-3.3c1.2-0.9,1.7-2.5,1.3-4
						c-1.1-0.6-2.4-0.8-3.6-0.5c-0.7-0.1-1.3,0.4-1.4,1.1l0,0c-0.1,0.6-0.1,1.2-0.1,1.8c0.4,1.1,0.2,2.4-0.7,3.2c-1.7,2-3.2,4-4.6,6
						c-2.2,2.1-4.2,4.5-6,6.9c-0.3-0.8-0.4-1.6-0.4-2.4C7,37.6,7,37.3,7.3,36.9c0.3-0.3,0.4-0.7,0.2-1.1c0.1-0.6,0.5-1.2,1-1.6
						c1.1-2.2,1.5-4.6,1.1-7c-1.2-1.5-2.7-2.6-4.5-3.3c-2.1-0.6-3.8-2-4.9-3.8c-0.5-1.2-0.3-2.5,0.6-3.4l6.5-2.8
						c2-0.8,4-1.7,5.8-2.9c1-0.7,1.9-1.6,2.5-2.7c-2.1-2.3-4.3-4.5-6.8-6.5C8.5,1.5,8.5,1.4,9,1.5L10,1.8c2.6,0.1,5.2,0.7,7.5,2
						c0.8,0.6,1.6,1.2,2.4,1.8c0.8,0.5,1.4,1.4,1.5,2.4c-0.3,0.4-0.6,0.8-1,1.1c0.3,0.9,0,1.8-0.7,2.5c-1.3-0.3-2.4-1.1-3.1-2.2
						c-1.6,1.6-3.4,3-5.4,4C8.4,14,5.8,15,3.2,16c-0.9,0.4-1.8,1-2.5,1.7c0.1,1,0.8,1.7,1.8,1.8c0.9,0.1,1.9,0.4,2.8,0.7
						c1.8,0.5,3.4,1.4,4.8,2.6c1.6,2.7,2,5.9,1.1,8.9l-0.8,3.1c2.1-1.3,4-3,5.5-5c1.4-1.1,2.1-2.9,2-4.7c-0.3-1.3-0.3-2.6,0-3.9
						c0.9-1.4,2.1-2.7,3.5-3.6c0.4,0,0.7-0.2,1-0.4c0.3-0.3,0.2-0.4-0.4-0.5c0.5-0.1,1.1-0.2,1.9-0.4c0.3-0.4,0.1-0.5-0.5-0.4
						c-0.4,0-0.3-0.1,0.4-0.4c0.8,0,1.1-0.4,0.9-1.4c-0.1-0.5-0.1-1.1,0.1-1.6c0-1.5,0-3.1,0.2-4.6c0.2-1.7,0.1-3.5-0.2-5.2
						c-0.2-0.5-0.7-0.5-1.3,0.2C22.8,3.1,22.7,2.8,23,2c0.5-0.9,1.4-1.7,2.4-2L26.4,0.2z M22.1,31.6c0.7,0.1,1.3-0.2,1.7-0.7
						c0.6-0.6,0.7-1,0.3-1.1L22.1,31.6z M39.1,23.5c0.4-0.3,0.8-0.7,1.2-1.1c-0.2-0.6-0.8-0.9-1.4-0.9
						C38.8,22.2,38.9,22.9,39.1,23.5L39.1,23.5z"/>
				</g>
				<g id="Path_1099">
					<path class="st0" d="M33.2,72.1c0.5,0.5,1.1,0.9,1.8,1.3c1.9,1,2.4,2.4,1.4,4.2c-0.2,0.5-0.5,1.1-0.8,1.6
						c-0.3,0.6-0.1,1,0.6,1.3c0.4-0.1,0.9,0,1.1,0.3c0.3,0.4,0.8,0.5,1.3,0.3c0.9,0.5,1.8,0.9,2.8,1.4s0.8,0.9-0.3,1.1
						c-1.8,0.5-3.7,0.7-5.6,0.7c-0.9-0.1-1.8,0.5-2,1.4l-1.7,4.1c-0.5,0.4-0.5,0.7-0.1,0.8c0.4,0.1,0.7,0.4,0.9,0.8
						c1.4,0.8,1.6,1.8,0.5,3c0,1-0.9,1.8-1.9,1.8c0,0,0,0,0,0h-0.3c-1.5,0.9-2.9,2.2-4,3.6c1.2,0.8,2.2,1.7,3.1,2.8
						c0,0.9,0.2,1.7,0.6,2.5c1.6-0.5,3.2-0.9,4.9-1.1c0.7,0,1.3,0,2,0c1.2,0.2,2.3,0.9,3,1.9c0.7,0.2,1,0.9,0.8,2
						c0.5,1.1,0.1,2.4-0.9,2.9h-0.1c-0.7,0.4-1.3,0.8-1.9,1.3c-0.6,0.4-1.2,0.7-1.8,1c0.6,1.3,0.9,2.7,0.8,4.1
						c-0.3,0.7-0.7,0.9-1.3,0.8c-0.5-0.1-1.1-0.2-1.6-0.1l-4.4-1c-1-0.3-2.1-0.6-3.2-0.9c-0.3-1,0.3-2,1.3-2.3h0.1
						c1.6-0.8,2.8-2,3.7-3.6c-1.1-0.4-2.4-0.4-3.5,0.1c-1.6-0.5-3.2-0.9-4.8-1.3c1.6-0.8,3.2-1.8,4.7-2.9l-2.3-1.2
						c-0.8-0.4-1.6-0.8-2.3-1.1c-1.8,2.2-3.3,4.5-4.7,6.9c-0.2,0.4,0,0.5,0.3,0.2c0.4-0.2,0.7-0.3,0.9-0.2c0.4-0.5,0.6-0.5,0.7,0
						c-0.2,0.7,0.2,1.5,0.8,1.9c1.3,0.7,2.1,2,2.1,3.4c0,1.4,0,2.8-0.2,4.2c-1.2,0.6-2.3,0.3-3.2-1c-1.3-0.7-2-2.2-1.8-3.6v-3.8
						c-2,2.6-4.1,5.1-6.4,7.5c-0.8,0.9-1.7,1.7-2.7,2.4c-1.2,1-2.6,1.8-4.1,2.4c-1,0.5-2.2,0.3-2.9-0.5c0.3-0.6,0.9-1.1,1.6-1.3
						c1.5-1.4,2.8-3,4-4.7c0.3-0.3,0.7-0.6,1.1-0.7l2-2.1c0.8-0.9,1.6-1.9,2.2-3c2.8-3.1,5.4-6.1,7.8-9.2c0.4-0.4,0.4-0.7,0-0.9
						c-0.3-0.2-0.7-0.5-0.9-0.8c-0.4-0.7-0.9-0.8-1.4-0.4c-0.4,0.4-0.9,0.8-1.5,1.1c-1.2,0.7-1.8,0.3-2-1.1
						c-0.4-1.1-0.5-2.2-0.3-3.4c1-1.3,2.2-2.4,3.5-3.4c1-0.8,1.8-1.8,2.4-2.9c1.1-0.8,1.1-1.7,0-2.4c-0.3,0.3-0.6,0.3-0.8-0.1
						c-0.2-0.3-0.5-0.4-0.8-0.2c0,0-0.1,0.1-0.1,0.1c-0.9,0.9-2.2,1.4-3.4,1.1c-1,0.2-2-0.4-2.3-1.4c0,0,0,0,0,0l0,0
						c0-0.1,0-0.3,0-0.4c-0.1-0.6-0.4-1.1-0.7-1.6c0.4-0.1,0.7-0.3,0.7-0.5c0.3-0.6,0.5-0.6,0.4,0c-0.1,0.5,0.1,1,0.5,1.4
						c1.3,0,2.6-0.3,3.7-0.9c0.6,0,0.8-0.2,0.6-0.7c-0.2-0.4-0.3-0.9-0.4-1.3c-0.4-0.9-0.5-2-0.4-3c0.2-1-0.2-2-1.1-2.6
						c-0.7-0.3-1.3-0.7-1.9-1.1c0.7-0.7,1.6-1.1,2.5-1.1c1.7,0.2,3.4,0.5,5,0.9c0.7,0.2,1.2,0.6,1.6,1.2c0,1.2,0.2,2.4,0.5,3.5
						c0.2,0.4,0.3,0.7,0.3,1.1c0,0.5,0.2,0.7,0.6,0.6l3.8-1c0.6-0.2,0.9-0.6,0.9-1.1c0.4-1.4,1-2.9,1.6-4.4c0.5-0.9,0.6-2,0.1-2.9
						c-0.3-0.2-0.6-0.4-1-0.4c-0.5-0.1-0.6-0.3-0.3-0.5c0.7,0,1.4-0.4,1.8-1L33.2,72.1z M18.8,111.7c0.1-0.2,0-0.3-0.2-0.2
						C18.6,111.9,18.7,111.9,18.8,111.7z M19,111.4c0.2-0.3,0.1-0.4-0.3-0.3C18.7,111.5,18.8,111.6,19,111.4L19,111.4z M24.7,93.6
						c-1.4,1.6-2.7,3.3-3.9,5.1c1.2,0.1,2.3,0.2,3.4,0.2l4-5.3c-1.1-0.2-2.3-0.3-3.4-0.1L24.7,93.6z M26.2,86
						c-0.9,0.1-1.7,0.6-2.2,1.3c-0.6,0.5-1.1,0.9-1.6,1.3c0.5,0.5,1.1,0.9,1.8,1.1c1-0.3,1.9-0.7,2.7-1.3c0.7-0.1,1.2-0.7,1.3-1.4
						c0.4-0.9,0.5-1.5,0.2-1.7L26.2,86z"/>
				</g>
			</g>
		</g>
	</g>
</g>
</svg>
