<svg id="Capa_1" enable-background="new 0 0 512 512" height="512" viewBox="0 0 512 512" width="512" xmlns="http://www.w3.org/2000/svg"><g><path d="m325.697 310.662 53.138 14.17c31.888 8.504 54.076 37.383 54.076 70.386v106.48c0 5.69-4.612 10.302-10.302 10.302h-333.218c-5.69 0-10.302-4.612-10.302-10.302v-106.48c0-33.003 22.188-61.882 54.076-70.386l53.138-14.17z" fill="#544f57"/><path d="m388.22 328.041c10.499 12.724 16.668 28.969 16.668 46.363v137.596h17.721c5.69 0 10.302-4.612 10.302-10.302v-106.48c0-29.655-17.921-55.972-44.691-67.177z" fill="#454045"/><path d="m362.146 320.382-36.45-9.72-41.673 201.338 64.228-88.699c1.701-2.349 2.333-5.307 1.741-8.146l-4.274-20.484c-.307-1.471-.288-2.992.055-4.456z" fill="#a59da5"/><path d="m149.854 320.382 36.45-9.72 41.673 201.338-64.228-88.699c-1.701-2.349-2.333-5.307-1.741-8.146l4.274-20.484c.307-1.471.288-2.992-.055-4.456z" fill="#a59da5"/><path d="m325.697 310.662-41.674 201.338h-56.046l-41.673-201.338z" fill="#efecef"/><path d="m284.023 512-16.278-100.794h-23.489l-16.279 100.794z" fill="#e28086"/><path d="m270.77 429.937-3.025-18.732h-23.489l-3.025 18.732z" fill="#dd636e"/><path d="m256 338.211-39.915 39.98c-2.72 2.724-7.357 1.611-8.545-2.05l-21.236-65.479 33.274-8.873z" fill="#e2dfe2"/><path d="m256 338.211 39.915 39.98c2.72 2.724 7.357 1.611 8.545-2.05l21.236-65.479-33.274-8.873z" fill="#e2dfe2"/><path d="m256 338.211-36.423-36.422v-44.748h72.846v44.748z" fill="#f1d0a5"/><path d="m219.577 280.731c11.342 4.252 23.614 6.583 36.423 6.583 12.808 0 25.081-2.332 36.423-6.583v-23.69h-72.846z" fill="#f1b986"/><path d="m172.748 96.78v85.423c0 45.905 36.717 83.954 82.621 84.295 46.268.343 83.883-37.061 83.883-83.25v-86.468z" fill="#f1d0a5"/><path d="m339.252 183.249v-86.469h-19.772v108.228c0 16.246-4.67 31.394-12.717 44.206 19.751-15.222 32.489-39.1 32.489-65.965z" fill="#f1b986"/><path d="m312.196 45.789v59.317l27.056 77.008v-39.545h27.057v-42.667c0-29.886-24.227-54.113-54.113-54.113z" fill="#ffd064"/><path d="m349.659 182.114h-10.407v-49.951h10.407c13.794 0 24.976 11.182 24.976 24.976-.001 13.793-11.183 24.975-24.976 24.975z" fill="#f1d0a5"/><path d="m145.691 83.252v59.317h27.057v39.545c.511-10.223 7.048-28.982 13.567-45.425 7.555-19.056 25.954-31.583 46.453-31.583h79.427v-59.317c.001-25.289-20.5-45.789-45.788-45.789h-37.464c-45.979 0-83.252 37.273-83.252 83.252z" fill="#ffe07d"/><path d="m267.745 411.206 24.678-36.513-36.423-36.482-36.423 36.482 24.679 36.513z" fill="#e28086"/><path d="m162.341 182.114h10.407v-49.951h-10.407c-13.794 0-24.976 11.182-24.976 24.976.001 13.793 11.183 24.975 24.976 24.975z" fill="#f1d0a5"/><g fill="#454045"><path d="m354.42 512v-41.626c0-4.268 3.459-7.726 7.726-7.726s7.726 3.459 7.726 7.726v41.626z"/><path d="m142.128 512v-41.626c0-4.268 3.459-7.726 7.726-7.726s7.726 3.459 7.726 7.726v41.626z"/></g></g></svg>